<svg xmlns="http://www.w3.org/2000/svg" viewBox="0 0 47.5 47.5" enable-background="new 0 0 47.5 47.5"><defs><clipPath id="a"><path d="M0 38h38V0H0v38z"/></clipPath></defs><g><g><g clip-path="url(#a)" transform="matrix(1.25 0 0 -1.25 0 47.5)"><g><path d="M37 12c0-5.522-8.06-10-18-10S1 6.478 1 12s8.06 10 18 10 18-4.478 18-10" fill="#939598"/></g><g><path d="M37 14c0-5.522-8.06-10-18-10S1 8.478 1 14s8.06 10 18 10 18-4.478 18-10" fill="#f1f2f2"/></g><g><path d="M33.8 15c0-4.54-6.626-8.223-14.8-8.223S4.2 10.46 4.2 15c0 4.54 6.626 8.222 14.8 8.222S33.8 19.542 33.8 15" fill="#ccd6dd"/></g><g><path d="M30 15c0-3.068-4.926-5.556-11-5.556-6.075 0-11 2.488-11 5.556s4.925 5.556 11 5.556c6.074 0 11-2.488 11-5.556" fill="#8a4b38"/></g><g><path d="M32.403 14.957c0-3.89-6-7.044-13.403-7.044-7.403 0-13.404 3.153-13.404 7.044 0 3.89 6 7.043 13.404 7.043 7.402 0 13.403-3.154 13.403-7.043" fill="#ad5540"/></g><g><path d="M32 16c0-9-26-9-26 0v8h26v-8z" fill="#662113"/></g><g><path d="M32.403 24.956c0-3.89-6-7.043-13.403-7.043-7.403 0-13.404 3.153-13.404 7.043S11.596 32 19 32c7.402 0 13.403-3.154 13.403-7.044" fill="#ad5540"/></g><g><path d="M12 24c-.552 0-1 .448-1 1v7c0 .552.448 1 1 1s1-.448 1-1v-7c0-.552-.448-1-1-1" fill="#88c9f9"/></g><g><path d="M19 21c-.552 0-1 .448-1 1v7c0 .552.448 1 1 1s1-.448 1-1v-7c0-.552-.448-1-1-1" fill="#88c9f9"/></g><g><path d="M26 24c-.553 0-1 .448-1 1v7c0 .552.447 1 1 1 .553 0 1-.448 1-1v-7c0-.552-.447-1-1-1" fill="#88c9f9"/></g><g><path d="M26 30.5c-1.062 0-1.896.486-2.233 1.3-.292.705-.438 2.237 1.88 4.554.195.195.51.195.707 0 2.317-2.317 2.17-3.85 1.88-4.555-.338-.814-1.172-1.3-2.234-1.3" fill="#ffac33"/></g><g><path d="M19 27.5c-1.062 0-1.896.486-2.233 1.3-.293.705-.437 2.237 1.88 4.554.195.195.51.195.707 0 2.317-2.317 2.17-3.85 1.88-4.555-.338-.814-1.172-1.3-2.234-1.3" fill="#ffac33"/></g><g><path d="M12 30.5c-1.062 0-1.896.486-2.233 1.3-.293.705-.437 2.237 1.88 4.554.195.195.51.195.707 0 2.316-2.317 2.172-3.85 1.88-4.555-.338-.814-1.172-1.3-2.234-1.3" fill="#ffac33"/></g></g></g></g></svg>