<svg xmlns="http://www.w3.org/2000/svg" viewBox="0 0 47.5 47.5" enable-background="new 0 0 47.5 47.5"><defs><clipPath id="a"><path d="M0 38h38V0H0v38z"/></clipPath></defs><g><g><g clip-path="url(#a)" transform="matrix(1.25 0 0 -1.25 0 47.5)"><g><path d="M25.77 17.285c0 3.757-3.045 6.8-6.8 6.8-2.281 0-4.293-1.124-5.527-2.844-1.236 1.72-3.248 2.846-5.527 2.846-3.756 0-6.8-3.044-6.8-6.8 0-.532.066-1.05.182-1.546.945-5.867 7.468-12.06 12.144-13.758 4.675 1.7 11.2 7.89 12.14 13.756.12.498.188 1.016.188 1.547" fill="#e75a70"/></g><g><path d="M36.885 31.307c0 2.602-2.11 4.71-4.71 4.71-1.58 0-2.974-.78-3.83-1.97-.855 1.19-2.248 1.97-3.826 1.97-2.603 0-4.712-2.108-4.712-4.71 0-.37.047-.727.127-1.07.654-4.065 5.173-8.353 8.41-9.53 3.24 1.177 7.76 5.465 8.413 9.53.08.343.127.7.127 1.07" fill="#e75a70"/></g></g></g></g></svg>