<svg xmlns="http://www.w3.org/2000/svg" viewBox="0 0 47.5 47.5" enable-background="new 0 0 47.5 47.5"><defs><clipPath id="a"><path d="M0 38h38V0H0v38z"/></clipPath></defs><g><g><g clip-path="url(#a)" transform="matrix(1.25 0 0 -1.25 0 47.5)"><g><path d="M35.06 10.593l-3.496 3.496c-1.93 1.93-5.06 1.93-6.99 0-.718-.72-1.166-1.603-1.35-2.53-5.766 1.08-11.373 6.663-11.722 11.654.948.176 1.854.628 2.587 1.36 1.93 1.93 1.93 5.06 0 6.99l-3.496 3.496c-1.93 1.93-5.06 1.93-6.99 0C-6.88 24.574 24.574-6.882 35.06 3.604c1.93 1.93 1.93 5.06 0 6.99" fill="#292f33"/></g></g></g></g></svg>